HIERARCHY
ROOT Hips
{
	OFFSET	0.00	0.00	0.00
	CHANNELS 6 Xposition Yposition Zposition Zrotation Xrotation Yrotation
	JOINT LeftUpLeg
	{
		OFFSET	 0.126116	-0.014019	-0.065224
		CHANNELS 3 Zrotation Xrotation Yrotation
		JOINT LeftLeg
		{
			OFFSET	 0.000000	 0.000000	 0.569914
			CHANNELS 3 Zrotation Xrotation Yrotation
			JOINT LeftFoot
			{
				OFFSET	 0.000000	 0.000000	 0.544423
				CHANNELS 3 Zrotation Xrotation Yrotation
				JOINT LeftToeBase
				{
					OFFSET	 0.000000	 0.000000	 0.207117
					CHANNELS 3 Zrotation Xrotation Yrotation
					End Site
					{
						OFFSET	 0.000000	 0.000000	 0.207117
					}
				}
			}
		}
	}
	JOINT RightUpLeg
	{
		OFFSET	-0.124023	-0.008373	-0.065224
		CHANNELS 3 Zrotation Xrotation Yrotation
		JOINT RightLeg
		{
			OFFSET	 0.000000	 0.000000	 0.570047
			CHANNELS 3 Zrotation Xrotation Yrotation
			JOINT RightFoot
			{
				OFFSET	 0.000000	 0.000000	 0.544354
				CHANNELS 3 Zrotation Xrotation Yrotation
				JOINT RightToeBase
				{
					OFFSET	 0.000000	 0.000000	 0.207540
					CHANNELS 3 Zrotation Xrotation Yrotation
					End Site
					{
						OFFSET	 0.000000	 0.000000	 0.207540
					}
				}
			}
		}
	}
	JOINT Spine
	{
		OFFSET	 0.000184	-0.007763	 0.117403
		CHANNELS 3 Zrotation Xrotation Yrotation
		JOINT Spine1
		{
			OFFSET	 0.000000	 0.000000	 0.137269
			CHANNELS 3 Zrotation Xrotation Yrotation
			JOINT Spine2
			{
				OFFSET	 0.000000	 0.000000	 0.156879
				CHANNELS 3 Zrotation Xrotation Yrotation
				JOINT LeftShoulder
				{
					OFFSET	 0.080501	-0.002496	 0.160144
					CHANNELS 3 Zrotation Xrotation Yrotation
					JOINT LeftArm
					{
						OFFSET	 0.000000	 0.000000	 0.164363
						CHANNELS 3 Zrotation Xrotation Yrotation
						JOINT LeftForeArm
						{
							OFFSET	 0.000000	 0.000000	 0.364576
							CHANNELS 3 Zrotation Xrotation Yrotation
							JOINT LeftHand
							{
								OFFSET	 0.000000	 0.000000	 0.360812
								CHANNELS 3 Zrotation Xrotation Yrotation
								JOINT LeftHandIndex1
								{
									OFFSET	 0.000000	 0.000000	 0.086006
									CHANNELS 3 Zrotation Xrotation Yrotation
									JOINT LeftHandIndex2
									{
										OFFSET	 0.000000	 0.000000	 0.047236
										CHANNELS 3 Zrotation Xrotation Yrotation
										JOINT LeftHandIndex3
										{
											OFFSET	-0.004284	-0.000551	 0.038166
											CHANNELS 3 Zrotation Xrotation Yrotation
											End Site
											{
												OFFSET	-0.004284	-0.000551	 0.038166
											}
										}
									}
								}
							}
						}
					}
				}
				JOINT Neck
				{
					OFFSET	 0.000000	 0.000000	 0.176489
					CHANNELS 3 Zrotation Xrotation Yrotation
					JOINT Head
					{
						OFFSET	 0.000000	-0.001747	 0.077940
						CHANNELS 3 Zrotation Xrotation Yrotation
						End Site
						{
							OFFSET	 0.000000	-0.001747	 0.077940
						}
					}
				}
				JOINT RightShoulder
				{
					OFFSET	-0.080363	 0.000306	 0.159706
					CHANNELS 3 Zrotation Xrotation Yrotation
					JOINT RightArm
					{
						OFFSET	 0.000000	 0.000000	 0.164196
						CHANNELS 3 Zrotation Xrotation Yrotation
						JOINT RightForeArm
						{
							OFFSET	 0.000000	 0.000000	 0.365611
							CHANNELS 3 Zrotation Xrotation Yrotation
							JOINT RightHand
							{
								OFFSET	 0.000000	 0.000000	 0.360648
								CHANNELS 3 Zrotation Xrotation Yrotation
								JOINT RightHandIndex1
								{
									OFFSET	 0.000000	 0.000000	 0.069977
									CHANNELS 3 Zrotation Xrotation Yrotation
									JOINT RightHandIndex2
									{
										OFFSET	 0.000000	 0.000000	 0.052305
										CHANNELS 3 Zrotation Xrotation Yrotation
										JOINT RightHandIndex3
										{
											OFFSET	 0.009002	-0.000782	 0.042196
											CHANNELS 3 Zrotation Xrotation Yrotation
											End Site
											{
												OFFSET	 0.009002	-0.000782	 0.042196
											}
										}
									}
								}
							}
						}
					}
				}
			}
		}
	}
}
MOTION
Frames:    7
Frame Time: 0.03333334
-0.059254	-2.251553	 1.202338	 4.812571	-1.474194	-3.661337	 7.785984	-10.133840	-172.663600	 0.797963	-38.090360	 0.274676	 57.067180	 81.487350	-60.993950	-2.370064	 31.502660	-0.067387	-12.554840	-31.087310	-175.311100	 10.372800	-50.431260	 8.624109	 9.999964	 74.362410	-5.040362	 2.358596	 33.055090	 0.104506	-2.551059	 8.201030	 1.043046	 1.497305	 4.918705	 3.047021	-8.324363	-5.246016	-4.225058	-93.902110	 58.972020	 175.464600	 17.163010	 35.734630	-38.305680	-16.827710	 2.647220	-9.473740	-8.344774	-10.032000	-8.770020	-4.869143	 19.246770	-2.786497	-3.885429	 21.422830	 2.206722	-4.808269	 5.545441	 0.146972	-0.086250	-5.062761	 0.178861	-10.059860	 0.537654	 1.873197	 89.790330	 61.635010	-179.980400	-19.475770	 51.468400	 7.123422	 13.264310	 3.570991	 22.388900	 3.729379	 3.410156	 0.103101	 6.295848	 25.079990	-0.547679	 1.857047	 44.929600	-6.967742	 0.499947	 24.391540	 3.581641
-0.060947	-2.289254	 1.200775	 5.783762	-0.727995	-3.711594	 6.631109	-8.836488	-172.995000	 1.247029	-37.418760	 0.543447	 60.468650	 82.236480	-64.662700	-2.368382	 31.782310	-0.073725	-15.282200	-33.727880	-176.293100	 10.702450	-45.151110	 8.179158	 13.029770	 78.483970	-9.339581	 2.359023	 32.992610	 0.103052	-2.257948	 7.771635	 0.865930	 1.485239	 4.690349	 3.299394	-8.750873	-5.151324	-4.368641	-94.126150	 59.019250	 174.980500	 16.117170	 33.423160	-39.628130	-17.300790	 2.632376	-9.440780	-7.506419	-9.743471	-9.783652	-4.863646	 19.395010	-2.797837	-3.873582	 21.574360	 2.194677	-4.804145	 5.594011	 0.144129	-0.035291	-5.107638	 0.236551	-10.310680	 0.587943	 1.691597	 89.708600	 61.734880	 179.824300	-19.002340	 52.413000	 4.958081	 12.586880	 3.432449	 22.955350	 3.344194	 4.538419	-0.363927	 6.275276	 23.478910	-0.552677	 2.049977	 43.335530	-7.139160	 0.816199	 22.989830	 3.423983
-0.062513	-2.329285	 1.197536	 6.360701	 0.074832	-4.013161	 5.920297	-7.321841	-173.117500	 1.501055	-36.588780	 0.684549	 67.381460	 83.166570	-71.691240	-2.366071	 32.156200	-0.082240	-16.882340	-35.926010	-177.146700	 10.820390	-38.715320	 7.302096	 17.423530	 79.528470	-15.263150	 2.360867	 32.716370	 0.096656	-1.567262	 7.187218	 0.929626	 1.500301	 4.769010	 3.532378	-9.114517	-5.131194	-4.525513	-94.330890	 58.962800	 174.552300	 14.756050	 31.063680	-40.953510	-17.939460	 2.612170	-9.394958	-7.104713	-9.920186	-9.580648	-4.849627	 19.729590	-2.815221	-3.855155	 21.808700	 2.175955	-4.793347	 5.721117	 0.136672	-0.008865	-5.168880	 0.301648	-10.579520	 0.640595	 1.626337	 89.585340	 61.886170	 179.526800	-18.349310	 53.310700	 2.836534	 11.412310	 3.145030	 23.541870	 2.680933	 5.660162	-1.321232	 6.244487	 21.601420	-0.607765	 2.224699	 41.803920	-7.292975	 1.222497	 21.138700	 3.230989
-0.064163	-2.367793	 1.193350	 6.572088	 0.527606	-4.335674	 5.507104	-5.391012	-173.256900	 1.625278	-35.609410	 0.741037	 73.134890	 83.896610	-77.444370	-2.361092	 32.923120	-0.099879	-16.665560	-37.027900	-177.440200	 10.332060	-32.428820	 6.000388	 32.514060	 81.686200	-31.377750	 2.355915	 33.442680	 0.113538	-0.818797	 6.737191	 1.109922	 1.528940	 5.177492	 3.589690	-9.349716	-5.171160	-4.588830	-94.447220	 58.893130	 174.315700	 13.278690	 29.217790	-42.093100	-18.507580	 2.588931	-9.348118	-7.122690	-9.864249	-9.029821	-4.832346	 20.087520	-2.821968	-3.832637	 22.093250	 2.153081	-4.776975	 5.913496	 0.125342	 0.013763	-5.247188	 0.335039	-10.768520	 0.674255	 1.566374	 89.480900	 61.997590	 179.272700	-17.481890	 53.989860	 1.013326	 10.113100	 2.782687	 23.704130	 2.126759	 6.436079	-2.601393	 6.209660	 19.738990	-0.680528	 2.444240	 39.750990	-7.484106	 1.625382	 19.248270	 3.050722
-0.067100	-2.416569	 1.186791	 6.811166	 0.693178	-4.645529	 4.911487	-2.385940	-173.613300	 1.800599	-34.113410	 0.812143	 73.901820	 84.571830	-78.179700	-2.346915	 34.872590	-0.145816	-15.883480	-38.184100	-177.537900	 10.216410	-26.266460	 4.904912	 48.305250	 82.026220	-48.191830	 2.342106	 35.266110	 0.156955	-0.113771	 6.651673	 1.277065	 1.527505	 5.416096	 3.673668	-9.545720	-5.166465	-4.656625	-94.523040	 58.882680	 174.156100	 11.470080	 27.687450	-43.198410	-18.685720	 2.549536	-9.277683	-7.217267	-10.006360	-8.954235	-4.834867	 20.401310	-2.929424	-3.802847	 22.466330	 2.122830	-4.748775	 6.243459	 0.105768	 0.070810	-5.349406	 0.351331	-10.889280	 0.778132	 1.360727	 89.389850	 62.004420	 179.052600	-16.122100	 54.513210	-1.201582	 8.642697	 2.352563	 23.208020	 1.781834	 6.826251	-4.127424	 6.174781	 17.425400	-0.707578	 2.737719	 36.761440	-7.735356	 2.110059	 16.904130	 2.849279
-0.071775	-2.466063	 1.177391	 7.091568	 0.640981	-4.617717	 4.142604	 0.772807	-174.393000	 2.190264	-32.881080	 0.997840	 60.039070	 84.853000	-64.316540	-2.311046	 38.810120	-0.244179	-15.297750	-41.078000	-178.004200	 10.282940	-24.316760	 4.593679	 32.116140	 79.202570	-32.260330	 2.337109	 35.867510	 0.171604	 0.413704	 6.771004	 1.217050	 1.556494	 5.579143	 3.680920	-9.695426	-5.108617	-4.707536	-94.531810	 59.072580	 174.106100	 9.809761	 26.791030	-44.284690	-18.571000	 2.499411	-9.193003	-7.443397	-10.626870	-9.529257	-4.862633	 20.555610	-3.136581	-3.775773	 22.802360	 2.095334	-4.709629	 6.699203	 0.078438	 0.146355	-5.443934	 0.311666	-10.898840	 0.960813	 1.144528	 89.357040	 61.798320	 178.981100	-14.760340	 54.691610	-3.852117	 7.321965	 1.952308	 23.522490	 1.574547	 6.758025	-5.359149	 6.175382	 15.103710	-0.552133	 2.948828	 34.420390	-7.912628	 2.571318	 14.605630	 2.674001
-0.078209	-2.518710	 1.167221	 7.368961	 0.364026	-4.006560	 3.573810	 4.379855	-175.940800	 2.065808	-31.311000	 0.890457	 29.911600	 83.152150	-33.438960	-2.218118	 45.769380	-0.442741	-13.888160	-43.576810	-178.502500	 8.119333	-24.345510	 3.687981	 11.363660	 72.952580	-8.676347	 2.339961	 35.527540	 0.163291	 0.845991	 6.840419	 0.636977	 1.581070	 5.985165	 3.654931	-9.828508	-5.013253	-4.810799	-94.480870	 59.301710	 174.176900	 8.537580	 26.145080	-45.265000	-18.572190	 2.441679	-9.094560	-7.706612	-10.936030	-9.861228	-4.886838	 20.668460	-3.312839	-3.758348	 23.016920	 2.077647	-4.657903	 7.296646	 0.042094	 0.227187	-5.478136	 0.256788	-10.840580	 1.183975	 1.236449	 89.354610	 61.520410	 178.985600	-13.671350	 54.621930	-6.085548	 6.137852	 1.557420	 23.870740	 1.153017	 6.530630	-6.164270	 6.235365	 12.843530	-0.157127	 3.085530	 32.812230	-8.025670	 2.978866	 12.523610	 2.533136
